C:\Users\movea\Dropbox\PhDWork\ExperimentalData\subject2\100\P2S100W02_filtered35.mot
nRows=11
nColumns=28

name C:\Users\movea\Dropbox\PhDWork\ExperimentalData\subject2\100\P2S100W02_filtered35.mot
datacolumns 28
datarows 11
range 0.6520000000 0.6620000000
endheader
time	ground_force_1_vx	ground_force_1_vy	ground_force_1_vz	ground_force_1_px	ground_force_1_py	ground_force_1_pz	ground_moment_1_mx	ground_moment_1_my	ground_moment_1_mz	ground_force_2_vx	ground_force_2_vy	ground_force_2_vz	ground_force_2_px	ground_force_2_py	ground_force_2_pz	ground_moment_2_mx	ground_moment_2_my	ground_moment_2_mz	ground_force_3_vx	ground_force_3_vy	ground_force_3_vz	ground_force_3_px	ground_force_3_py	ground_force_3_pz	ground_moment_3_mx	ground_moment_3_my	ground_moment_3_mz
        0.6520000000	       -0.0000000000	        0.0000000000	       -0.0000000000	        0.1988394961	        0.0000558755	       -0.3004071324	        0.0000000000	        0.0000000000	        0.0000000000	       -0.0000001625	        0.0000000000	        0.0000062897	        0.2029003516	       -0.0000795827	        0.4543649445	        0.0000002391	        0.0000003709	        0.0000007138	       -6.6241523826	      459.9628404025	      -40.8664871270	        0.2076431971	        0.0000770316	        1.3583900146	      122.2693098457	        8.1949274300	       29.7291693251	
        0.6530000000	        0.0000000000	        0.0000000000	       -0.0000000000	        0.1988394961	        0.0000558755	       -0.3004071324	        0.0000000000	        0.0000000000	        0.0000000000	       -0.0000000157	        0.0000000000	        0.0000069883	        0.2029003516	       -0.0000795827	        0.4543649445	        0.0000002571	        0.0000003816	        0.0000007448	       -6.3515857188	      460.8928451454	      -41.6831576259	        0.2076431971	        0.0000770316	        1.3583900146	      122.6134077837	        8.1798452406	       29.7746907716	
        0.6540000000	        0.0000000000	        0.0000000000	       -0.0000000000	        0.1988394961	        0.0000558755	       -0.3004071324	        0.0000000000	        0.0000000000	        0.0000000000	        0.0000002021	        0.0000000000	        0.0000073722	        0.2029003516	       -0.0000795827	        0.4543649445	        0.0000002597	        0.0000003621	        0.0000007216	       -6.0670756540	      461.7879018517	      -42.5114414984	        0.2076431971	        0.0000770316	        1.3583900146	      122.9494107333	        8.1617021942	       29.8151288103	
        0.6550000000	        0.0000000000	        0.0000000000	       -0.0000000000	        0.1988394961	        0.0000558755	       -0.3004071324	        0.0000000000	        0.0000000000	        0.0000000000	        0.0000005043	        0.0000000000	        0.0000072571	        0.2029003516	       -0.0000795827	        0.4543649445	        0.0000002397	        0.0000002999	        0.0000006209	       -5.7713939058	      462.6484942259	      -43.3515960697	        0.2076431971	        0.0000770316	        1.3583900146	      123.2763218861	        8.1413566186	       29.8498555389	
        0.6560000000	        0.0000000000	        0.0000000000	        0.0000000000	        0.1988394961	        0.0000558755	       -0.3004071324	        0.0000000000	       -0.0000000000	        0.0000000000	        0.0000009030	        0.0000000000	        0.0000064173	        0.2029003516	       -0.0000795827	        0.4543649445	        0.0000001880	        0.0000001806	        0.0000004151	       -5.4659011208	      463.4755570978	      -44.2033998988	        0.2076431971	        0.0000770316	        1.3583900146	      123.5939419366	        8.1196252673	       29.8789268742	
        0.6570000000	        0.0000000000	        0.0000000000	        0.0000000000	        0.1988394961	        0.0000558755	       -0.3004071324	        0.0000000000	       -0.0000000000	       -0.0000000000	        0.0000014071	        0.0000000000	        0.0000045873	        0.2029003516	       -0.0000795827	        0.4543649445	        0.0000000945	       -0.0000000119	        0.0000000736	       -5.1520125389	      464.2706551390	      -45.0662180713	        0.2076431971	        0.0000770316	        1.3583900146	      123.9024647886	        8.0971444247	       29.9027656071	
        0.6580000000	        0.0000000000	        0.0000000000	        0.0000000000	        0.1988394961	        0.0000558755	       -0.3004071324	       -0.0000000000	       -0.0000000000	       -0.0000000000	        0.0000020199	        0.0000000000	        0.0000014672	        0.2029003516	       -0.0000795827	        0.4543649445	       -0.0000000520	       -0.0000002944	       -0.0000004364	       -4.8306558675	      465.0359660507	      -45.9388077287	        0.2076431971	        0.0000770316	        1.3583900146	      124.2017827002	        8.0743286621	       29.9219018136	
        0.6590000000	        0.0000000000	        0.0000000000	        0.0000000000	        0.1988394961	        0.0000558755	       -0.3004071324	       -0.0000000000	       -0.0000000000	       -0.0000000000	        0.0000027363	        0.0000088470	       -0.0000032656	        0.2029003516	       -0.0000795827	        0.4543649445	       -0.0000002631	       -0.0000006835	       -0.0000011476	       -4.5020390086	      465.7740586874	      -46.8193823134	        0.2076431971	        0.0000770316	        1.3583900146	      124.4913355033	        8.0514092090	       29.9368460780	
        0.6600000000	        0.0000000000	        0.0000000000	        0.0000000000	        0.1988394961	        0.0000558755	       -0.3004071324	       -0.0000000000	       -0.0000000000	       -0.0000000000	        0.0000035392	        0.0000244528	       -0.0000099376	        0.2029003516	       -0.0000795827	        0.4543649445	       -0.0000005498	       -0.0000011936	       -0.0000020895	       -4.1660798071	      466.4871960635	      -47.7058445833	        0.2076431971	        0.0000770316	        1.3583900146	      124.7705212080	        8.0285080607	       29.9478481137	
        0.6610000000	        0.0000000000	        0.0000000000	        0.0000000000	        0.1988394961	        0.0000558755	       -0.3004071324	       -0.0000000000	       -0.0000000000	       -0.0000000000	        0.0000043953	        0.0000451890	       -0.0000188508	        0.2029003516	       -0.0000795827	        0.4543649445	       -0.0000009215	       -0.0000018351	       -0.0000032844	       -3.8233990132	      467.1753743069	      -48.5961324292	        0.2076431971	        0.0000770316	        1.3583900146	      125.0390815141	        8.0056724240	       29.9548222038	
        0.6620000000	        0.0000000000	        0.0000000000	        0.0000000000	        0.1988394961	        0.0000558755	       -0.3004071324	       -0.0000000000	       -0.0000000000	       -0.0000000000	        0.0000052509	        0.0000715697	       -0.0000302431	        0.2029003516	       -0.0000795827	        0.4543649445	       -0.0000013841	       -0.0000026108	       -0.0000047418	       -3.4761912096	      467.8349001201	      -49.4887240866	        0.2076431971	        0.0000770316	        1.3583900146	      125.2971540256	        7.9828558490	       29.9576830959	
